<svg width="512" height="512" xmlns="http://www.w3.org/2000/svg" xmlns:svg="http://www.w3.org/2000/svg" xmlns:xlink="http://www.w3.org/1999/xlink">
 <g>
  <title>Layer 1</title>
  <g id="svg_1">
   <rect id="svg_47" height="372.999987" width="51" y="84.999991" x="158.166667" stroke-linecap="null" stroke-linejoin="null" stroke-dasharray="null" stroke-width="null" fill="#ee8700"/>
   <path id="svg_2" fill="#D5851F" d="m76.243667,364.606l-0.001,-46.546l0,-93.09l0,-139.618l356.848,-0.019l0,94.091l0,45.546l0,93.091l0,46.546l0,93.091l46.545,0l0,-116.365l0,-139.636l0,-139.636l0,-31.031c0,-12.853 -10.42,-23.273 -23.273,-23.273s-23.273,10.42 -23.273,23.273l0,7.758l-356.847,0.018l0,-7.776c0,-12.853 -10.42,-23.273 -23.273,-23.273s-23.273,10.421 -23.273,23.273l0,31.049l0,0.002l0,0.002l0,279.229l0,0.022c0,0.006 0,0.014 0,0.02l0.002,116.343l46.545,0l0,-93.091z"/>
   <rect transform="rotate(99.22988891601562 197.16667175292966,110.49999999999997) " id="svg_46" height="1" width="0" y="110" x="197.166667" stroke-linecap="null" stroke-linejoin="null" stroke-dasharray="null" stroke-width="null" fill="#D5851F"/>
   <rect id="svg_49" height="372.999987" width="51" y="84.999999" x="297.666667" stroke-linecap="null" stroke-linejoin="null" stroke-dasharray="null" stroke-width="null" fill="#ffb655"/>
  </g>
  <path id="svg_15" fill="#A78966" d="m488.727,459.030333l-7.758,0l-46.545,0l-178.424,0l-178.423,0l-46.545,0l-7.759,0c-12.853,0 -23.273,10.42 -23.273,23.273c0,12.853 10.42,23.273 23.273,23.273l31.032,0l201.695,0l201.697,0l31.03,0c12.853,0 23.273,-10.42 23.273,-23.273c0,-12.853 -10.42,-23.273 -23.273,-23.273z"/>
  <path id="svg_5" fill="#AF2E08" d="m487.393667,457.697l-7.758,0l-46.545,0l-356.847,0l-46.545,0l-7.759,0c-12.853,0 -23.273,10.42 -23.273,23.273c0,12.853 10.42,23.273 23.273,23.273l31.032,0l403.392,0l31.03,0c12.853,0 23.273,-10.42 23.273,-23.273c0,-12.853 -10.42,-23.273 -23.273,-23.273z"/>
  <g id="svg_6">
   <path id="svg_7" fill="#69A15F" d="m225.981,208.424c-8.06,-13.898 -23.093,-23.273 -40.284,-23.273c-8.476,0 -16.421,2.288 -23.273,6.262c-7.045,4.087 -12.924,9.964 -17.011,17.011c-0.147,0.254 -0.296,0.507 -0.441,0.763c-3.703,6.676 -5.821,14.348 -5.821,22.509s2.118,15.833 5.821,22.509c0.144,0.256 0.293,0.51 0.441,0.763c4.087,7.047 9.965,12.924 17.011,17.011c6.851,3.975 14.797,6.262 23.273,6.262c17.191,0 32.223,-9.374 40.284,-23.273c3.973,-6.853 6.262,-14.798 6.262,-23.273s-2.289,-16.419 -6.262,-23.271z"/>
  </g>
  <path id="svg_20" fill="#64C37D" d="m323.848,89.152c-17.191,0 -32.223,9.374 -40.284,23.273c-3.973,6.853 -6.262,14.798 -6.262,23.273c0,8.474 2.289,16.42 6.262,23.273c8.06,13.898 23.093,23.273 40.284,23.273s32.223,-9.374 40.284,-23.273c3.975,-6.853 6.262,-14.798 6.262,-23.273s-2.288,-16.42 -6.262,-23.273c-8.06,-13.899 -23.093,-23.273 -40.284,-23.273z"/>
  <g id="svg_16">
   <path id="svg_17" fill="#FFB655" d="m457.697,7.758c-12.853,0 -23.273,10.42 -23.273,23.273l0,7.758l-178.424,0.008l-178.424,0.009l0,-7.776c0,-12.853 -10.42,-23.273 -23.273,-23.273s-23.273,10.421 -23.273,23.273l0,31.049l0,0.003l0,0.002l0,279.229l0,0.02c0,0.006 0,0.014 0,0.02l0.002,116.343l46.545,0l0,-93.091l-0.001,-279.253l178.424,-0.009l178.424,-0.009l0,93.091l0,139.637l0,46.546l0,93.091l46.545,0l0,-116.366l0,-139.636l0,-139.636l0,-31.031c0.001,-12.852 -10.419,-23.272 -23.272,-23.272z"/>
  </g>
  <path id="svg_22" fill="#A4E276" d="m324.848,363.788c-8.476,0 -16.421,2.288 -23.273,6.262c-7.045,4.087 -12.924,9.964 -17.011,17.011c-0.147,0.254 -0.296,0.507 -0.441,0.763c-3.703,6.676 -5.821,14.348 -5.821,22.509c0,8.161 2.118,15.833 5.821,22.509c0.144,0.256 0.293,0.51 0.441,0.763c4.087,7.047 9.965,12.924 17.011,17.011c6.852,3.975 14.797,6.262 23.273,6.262c17.191,0 32.223,-9.374 40.284,-23.273c3.975,-6.853 6.262,-14.798 6.262,-23.273c0,-8.474 -2.288,-16.42 -6.262,-23.273c-8.06,-13.897 -23.093,-23.271 -40.284,-23.271z"/>
  <path id="svg_27" fill="#806749" d="m77.577,457.697l-46.545,0l-7.759,0c-12.853,0 -23.273,10.42 -23.273,23.273c0,12.853 10.42,23.273 23.273,23.273l31.032,0l201.695,0l0,-46.545l-178.423,0l0,-0.001z"/>
  <path id="svg_28" fill="#D8143A" d="m224.981,111.424c-8.06,-13.898 -23.093,-23.273 -40.284,-23.273c-8.476,0 -16.421,2.288 -23.273,6.262c-7.045,4.087 -12.924,9.964 -17.011,17.011c-0.147,0.254 -0.296,0.507 -0.441,0.763c-3.703,6.676 -5.821,14.348 -5.821,22.509s2.118,15.833 5.821,22.509c0.144,0.256 0.293,0.51 0.441,0.763c4.087,7.047 9.965,12.924 17.011,17.011c6.851,3.975 14.797,6.262 23.273,6.262c17.191,0 32.223,-9.374 40.284,-23.273c3.975,-6.853 6.262,-14.798 6.262,-23.273s-2.289,-16.418 -6.262,-23.271z"/>
  <g id="svg_23">
   <path id="svg_24" fill="#EE8700" d="m77.576,31.03c0,-12.853 -10.42,-23.273 -23.273,-23.273s-23.273,10.421 -23.273,23.273l0,31.049l0,0.003l0,0.002l0,279.229l0,0.02c0,0.006 0,0.014 0,0.02l0.002,116.343l46.545,0l0,-93.091l-0.001,-46.546l0,-93.089l0,-46.546l0,-93.072l178.424,-0.009l0,-46.546l-178.424,0.009l0,-7.776z"/>
  </g>
  <path id="svg_29" fill="#FF3F62" d="m184.152,456.879c17.191,0 32.223,-9.374 40.284,-23.273c3.975,-6.853 6.262,-14.798 6.262,-23.273c0,-8.474 -2.288,-16.42 -6.262,-23.273c-8.06,-13.898 -23.093,-23.273 -40.284,-23.273s-32.223,9.374 -40.284,23.273c-3.973,6.853 -6.262,14.798 -6.262,23.273c0,8.474 2.288,16.42 6.262,23.273c8.06,13.899 23.093,23.273 40.284,23.273z"/>
  <g id="svg_31"/>
  <g id="svg_32"/>
  <g id="svg_33"/>
  <g id="svg_34"/>
  <g id="svg_35"/>
  <g id="svg_36"/>
  <g id="svg_37"/>
  <g id="svg_38"/>
  <g id="svg_39"/>
  <g id="svg_40"/>
  <g id="svg_41"/>
  <g id="svg_42"/>
  <g id="svg_43"/>
  <g id="svg_44"/>
  <g id="svg_45"/>
  <g id="svg_54"/>
  <use fill="#ffffff" x="1255.750799" y="1233.720053" transform="matrix(0.08069541818786076,0,0,0.08069541818786076,37.267630137464145,-1.9850688564518246) " xlink:href="#svg_57" id="svg_58"/>
  <path id="svg_10" fill="#3D6DEB" d="m322.413539,267.217971c-17.191,0 -32.223,9.374 -40.284,23.273c-3.973,6.851 -6.262,14.798 -6.262,23.273c0,8.474 2.289,16.42 6.262,23.273c8.06,13.898 23.093,23.273 40.284,23.273s32.223,-9.374 40.284,-23.273c3.973,-6.853 6.262,-14.798 6.262,-23.273s-2.288,-16.421 -6.262,-23.273c-8.06,-13.899 -23.093,-23.273 -40.284,-23.273z"/>
  <g id="svg_59"/>
 </g>
 <defs>
  <symbol width="1024px" viewBox="0 0 1024 1024" id="svg_57" height="1024px" xmlns:xlink="http://www.w3.org/1999/xlink" xmlns="http://www.w3.org/2000/svg">
   <g>
    <path fill-rule="evenodd" d="m667.575,684.036c29.498,42.729 31.01,91.438 30.54,140.826c-0.57,59.8 -0.111,119.604 -0.05,179.408c0.022,19.207 -0.445,19.731 -19.1,19.729c-78.256,-0.012 -156.512,-0.005 -234.769,-0.007c-17.454,0 -19.02,-1.667 -18.996,-19.188c0.055,-38.141 0.018,-76.282 0.018,-116.467c-13.499,1.382 -27.038,2.831 -40.589,4.143c-66.12,6.401 -123.748,-10.497 -168.359,-62.186c-6.244,-7.236 -11.229,-15.609 -16.383,-23.721c-22.712,-35.758 -44.708,-71.988 -68.222,-107.205c-7.278,-10.897 -18.543,-19.128 -27.959,-28.601c-4.959,-4.988 -9.87,-10.026 -15.707,-15.965c16.315,-10.603 31.94,-7.718 46.736,-5.44c36.94,5.688 61.914,28.566 81.694,58.915c9.845,15.105 20.032,30.51 32.675,43.164c40.49,40.528 89.668,53.605 145.37,40.97c35.929,-8.152 28.961,-4.369 34.328,-37.189c3.585,-21.921 9.63,-42.799 21.561,-61.729c1.978,-3.141 3.617,-6.494 6.054,-10.913c-15.766,-3.111 -30.49,-5.605 -45.016,-8.956c-57.636,-13.29 -110.782,-35.758 -152.841,-78.96c-44.573,-45.789 -68.698,-100.626 -70.376,-164.982c-1.411,-54.079 -1.079,-107.997 11.167,-161.119c7.859,-34.098 22.069,-64.649 47.012,-89.985c3.865,-3.928 6.128,-13.232 4.327,-18.359c-17.77,-50.603 -15.334,-100.626 1.086,-150.939c2.823,-8.653 5.798,-10.738 14.439,-8.377c31.695,8.664 58.827,25.018 81.457,48.459c15.443,15.996 29.577,33.263 44.914,50.663c39.151,-28.285 85.473,-29.278 131.177,-31.946c50.531,-2.949 101.104,-2.15 150.76,8.614c19.284,4.182 37.626,12.71 54.768,18.69c20.14,-19.135 40.941,-38.615 61.418,-58.433c18.493,-17.898 40.396,-29.047 65.105,-35.647c9.458,-2.526 14.257,-0.28 17.46,8.951c16.997,48.973 19.867,97.926 0.771,147.019c-2.784,7.161 -4.695,13.899 1.884,20.188c33.405,31.945 50.024,72.171 53.556,117.249c3.73,47.601 8.206,95.606 5.865,143.117c-4.347,88.167 -48.115,154.374 -124.163,198.896c-40.771,23.87 -85.285,36.961 -131.779,43.855c-2.664,0.394 -5.354,0.662 -7.979,1.232c-1.061,0.234 -1.983,1.116 -3.854,2.226z" clip-rule="evenodd"/>
   </g>
  </symbol>
 </defs>
</svg>