<?xml version="1.0" encoding="iso-8859-1"?>
<!-- Generator: Adobe Illustrator 19.0.0, SVG Export Plug-In . SVG Version: 6.00 Build 0)  -->
<svg version="1.1" id="Layer_1" xmlns="http://www.w3.org/2000/svg" xmlns:xlink="http://www.w3.org/1999/xlink" x="0px" y="0px"
	 viewBox="0 0 512 512" style="enable-background:new 0 0 512 512;" xml:space="preserve">
<g>
	<path style="fill:#D5851F;" d="M77.577,364.606h37.291c-3.973-6.853-6.262-14.798-6.262-23.273c0-8.474,2.288-16.42,6.262-23.273
		H77.576V224.97h37.292c-3.973-6.853-6.262-14.798-6.262-23.273s2.288-16.421,6.262-23.273H77.576V85.352l356.848-0.019v93.091
		h-37.292c3.973,6.851,6.262,14.798,6.262,23.273c0,8.474-2.288,16.42-6.262,23.273h37.292v93.091h-37.292
		c3.973,6.853,6.262,14.798,6.262,23.273c0,8.474-2.288,16.42-6.262,23.273h37.292v93.091h46.545V341.333V201.697V62.061V31.03
		c0-12.853-10.42-23.273-23.273-23.273s-23.273,10.42-23.273,23.273v7.758L77.576,38.806V31.03c0-12.853-10.42-23.273-23.273-23.273
		S31.03,18.178,31.03,31.03v31.049v0.002v0.002v279.229v0.022c0,0.006,0,0.014,0,0.02l0.002,116.343h46.545V364.606z"/>
	<path style="fill:#D5851F;" d="M270.019,318.061h-74.584c3.973,6.853,6.262,14.798,6.262,23.273c0,8.474-2.288,16.42-6.262,23.273
		h74.584c-3.973-6.853-6.262-14.798-6.262-23.273C263.758,332.859,266.046,324.914,270.019,318.061z"/>
	<path style="fill:#D5851F;" d="M316.565,178.424H241.98c3.973,6.851,6.262,14.798,6.262,23.273c0,8.474-2.288,16.42-6.262,23.273
		h74.584c-3.973-6.853-6.262-14.798-6.262-23.273S312.592,185.276,316.565,178.424z"/>
</g>
<path style="fill:#AF2E08;" d="M488.727,457.697h-7.758h-46.545H77.577H31.032h-7.759C10.42,457.697,0,468.117,0,480.97
	c0,12.853,10.42,23.273,23.273,23.273h31.032h403.392h31.03c12.853,0,23.273-10.42,23.273-23.273
	C512,468.117,501.58,457.697,488.727,457.697z"/>
<g>
	<path style="fill:#69A15F;" d="M241.981,178.424c-8.06-13.898-23.093-23.273-40.284-23.273c-8.476,0-16.421,2.288-23.273,6.262
		c-7.045,4.087-12.924,9.964-17.011,17.011c-0.147,0.254-0.296,0.507-0.441,0.763c-3.703,6.676-5.821,14.348-5.821,22.509
		s2.118,15.833,5.821,22.509c0.144,0.256,0.293,0.51,0.441,0.763c4.087,7.047,9.965,12.924,17.011,17.011
		c6.851,3.975,14.797,6.262,23.273,6.262c17.191,0,32.223-9.374,40.284-23.273c3.973-6.853,6.262-14.798,6.262-23.273
		S245.954,185.276,241.981,178.424z"/>
	<path style="fill:#69A15F;" d="M155.152,387.879c17.191,0,32.223-9.374,40.284-23.273c3.973-6.853,6.262-14.798,6.262-23.273
		c0-8.474-2.288-16.42-6.262-23.273c-8.06-13.898-23.093-23.273-40.284-23.273s-32.223,9.374-40.284,23.273
		c-3.973,6.853-6.262,14.798-6.262,23.273c0,8.474,2.288,16.42,6.262,23.273C122.928,378.505,137.961,387.879,155.152,387.879z"/>
</g>
<g>
	<path style="fill:#3D6DEB;" d="M356.848,155.152c-17.191,0-32.223,9.374-40.284,23.273c-3.973,6.851-6.262,14.798-6.262,23.273
		c0,8.474,2.289,16.42,6.262,23.273c8.06,13.898,23.093,23.273,40.284,23.273s32.223-9.374,40.284-23.273
		c3.973-6.853,6.262-14.798,6.262-23.273s-2.288-16.421-6.262-23.273C389.072,164.526,374.039,155.152,356.848,155.152z"/>
	<path style="fill:#3D6DEB;" d="M316.565,364.606c-0.147-0.254-0.296-0.507-0.441-0.763c-3.703-6.676-5.821-14.348-5.821-22.509
		c0-8.161,2.118-15.833,5.821-22.509c0.144-0.256,0.293-0.51,0.441-0.763c4.087-7.047,9.965-12.924,17.011-17.011
		c-6.852-3.975-14.797-6.262-23.273-6.262c-17.191,0-32.223,9.374-40.284,23.273c-3.973,6.853-6.262,14.798-6.262,23.273
		c0,8.474,2.288,16.42,6.262,23.273c8.06,13.898,23.093,23.273,40.284,23.273c8.476,0,16.421-2.289,23.273-6.262
		C326.53,377.53,320.652,371.653,316.565,364.606z"/>
</g>
<g>
	<path style="fill:#D8143A;" d="M155.152,248.242c8.476,0,16.421-2.288,23.273-6.262c-7.045-4.087-12.924-9.964-17.011-17.011
		c-0.147-0.254-0.296-0.507-0.441-0.763c-3.703-6.676-5.821-14.348-5.821-22.509s2.118-15.833,5.821-22.509
		c0.144-0.258,0.293-0.51,0.441-0.763c4.087-7.045,9.965-12.924,17.011-17.011c-6.851-3.975-14.797-6.262-23.273-6.262
		c-17.191,0-32.223,9.374-40.284,23.273c-3.973,6.851-6.262,14.798-6.262,23.273c0,8.474,2.288,16.42,6.262,23.273
		C122.928,238.868,137.961,248.242,155.152,248.242z"/>
	<path style="fill:#D8143A;" d="M356.848,294.788c-8.476,0-16.421,2.288-23.273,6.262c-7.045,4.087-12.924,9.964-17.011,17.011
		c-0.147,0.254-0.296,0.507-0.441,0.763c-3.703,6.676-5.821,14.348-5.821,22.509c0,8.161,2.118,15.833,5.821,22.509
		c0.144,0.256,0.293,0.51,0.441,0.763c4.087,7.047,9.965,12.924,17.011,17.011c6.852,3.975,14.797,6.262,23.273,6.262
		c17.191,0,32.223-9.374,40.284-23.273c3.973-6.853,6.262-14.798,6.262-23.273c0-8.474-2.288-16.42-6.262-23.273
		C389.072,304.162,374.039,294.788,356.848,294.788z"/>
</g>
<path style="fill:#A78966;" d="M488.727,457.697h-7.758h-46.545H256H77.577H31.032h-7.759C10.42,457.697,0,468.117,0,480.97
	c0,12.853,10.42,23.273,23.273,23.273h31.032H256h201.697h31.03c12.853,0,23.273-10.42,23.273-23.273
	C512,468.117,501.58,457.697,488.727,457.697z"/>
<g>
	<path style="fill:#FFB655;" d="M457.697,7.758c-12.853,0-23.273,10.42-23.273,23.273v7.758L256,38.797L77.576,38.806V31.03
		c0-12.853-10.42-23.273-23.273-23.273S31.03,18.178,31.03,31.03v31.049v0.003v0.002v279.229v0.02c0,0.006,0,0.014,0,0.02
		l0.002,116.343h46.545v-93.091h37.291c-3.973-6.853-6.262-14.798-6.262-23.273c0-8.474,2.288-16.42,6.262-23.273H77.576V224.97
		h37.292c-3.973-6.853-6.262-14.798-6.262-23.273s2.288-16.42,6.262-23.273H77.576V85.352L256,85.343l178.424-0.009v93.091h-37.292
		c3.975,6.853,6.262,14.798,6.262,23.273c0,8.474-2.288,16.42-6.262,23.273h37.292v93.091h-37.292
		c3.975,6.853,6.262,14.798,6.262,23.273c0,8.474-2.288,16.42-6.262,23.273h37.292v93.091h46.545V341.333V201.697V62.061V31.03
		C480.97,18.178,470.55,7.758,457.697,7.758z"/>
	<path style="fill:#FFB655;" d="M256,318.061h-60.565c3.975,6.853,6.262,14.798,6.262,23.273c0,8.474-2.288,16.42-6.262,23.273H256
		h14.019c-3.973-6.853-6.262-14.798-6.262-23.273c0-8.474,2.288-16.42,6.262-23.273H256z"/>
	<path style="fill:#FFB655;" d="M256,178.424h-14.019c3.975,6.853,6.262,14.798,6.262,23.273c0,8.474-2.288,16.42-6.262,23.273H256
		h60.565c-3.973-6.853-6.262-14.798-6.262-23.273s2.289-16.42,6.262-23.273H256z"/>
</g>
<path style="fill:#64C37D;" d="M356.848,155.152c-17.191,0-32.223,9.374-40.284,23.273c-3.973,6.853-6.262,14.798-6.262,23.273
	c0,8.474,2.289,16.42,6.262,23.273c8.06,13.898,23.093,23.273,40.284,23.273s32.223-9.374,40.284-23.273
	c3.975-6.853,6.262-14.798,6.262-23.273s-2.288-16.42-6.262-23.273C389.072,164.526,374.039,155.152,356.848,155.152z"/>
<path style="fill:#5286FA;" d="M316.565,364.606c-0.147-0.254-0.296-0.507-0.441-0.763c-3.703-6.676-5.821-14.348-5.821-22.509
	c0-8.161,2.118-15.833,5.821-22.509c0.144-0.258,0.293-0.51,0.441-0.763c4.087-7.047,9.965-12.924,17.011-17.011
	c-6.852-3.973-14.797-6.262-23.273-6.262c-17.191,0-32.223,9.374-40.284,23.273c-3.973,6.853-6.262,14.798-6.262,23.273
	c0,8.474,2.288,16.42,6.262,23.273c8.06,13.898,23.093,23.273,40.284,23.273c8.476,0,16.421-2.289,23.273-6.262
	C326.53,377.53,320.652,371.653,316.565,364.606z"/>
<path style="fill:#A4E276;" d="M356.848,294.788c-8.476,0-16.421,2.288-23.273,6.262c-7.045,4.087-12.924,9.964-17.011,17.011
	c-0.147,0.254-0.296,0.507-0.441,0.763c-3.703,6.676-5.821,14.348-5.821,22.509c0,8.161,2.118,15.833,5.821,22.509
	c0.144,0.256,0.293,0.51,0.441,0.763c4.087,7.047,9.965,12.924,17.011,17.011c6.852,3.975,14.797,6.262,23.273,6.262
	c17.191,0,32.223-9.374,40.284-23.273c3.975-6.853,6.262-14.798,6.262-23.273c0-8.474-2.288-16.42-6.262-23.273
	C389.072,304.162,374.039,294.788,356.848,294.788z"/>
<g>
	<path style="fill:#EE8700;" d="M77.576,31.03c0-12.853-10.42-23.273-23.273-23.273S31.03,18.178,31.03,31.03v31.049v0.003v0.002
		v279.229v0.02c0,0.006,0,0.014,0,0.02l0.002,116.343h46.545v-93.091h37.291c-3.973-6.853-6.262-14.798-6.262-23.273
		c0-8.474,2.288-16.42,6.262-23.273H77.576V224.97h37.292c-3.973-6.853-6.262-14.798-6.262-23.273s2.288-16.42,6.262-23.273H77.576
		V85.352L256,85.343V38.797L77.576,38.806V31.03z"/>
	<path style="fill:#EE8700;" d="M195.435,318.061c3.975,6.853,6.262,14.798,6.262,23.273c0,8.474-2.288,16.42-6.262,23.273H256
		v-46.545H195.435z"/>
	<path style="fill:#EE8700;" d="M241.981,178.424c3.975,6.853,6.262,14.798,6.262,23.273c0,8.474-2.288,16.42-6.262,23.273H256
		v-46.545H241.981z"/>
</g>
<path style="fill:#806749;" d="M77.577,457.697H31.032h-7.759C10.42,457.697,0,468.117,0,480.97
	c0,12.853,10.42,23.273,23.273,23.273h31.032H256v-46.545H77.577z"/>
<path style="fill:#D8143A;" d="M241.981,178.424c-8.06-13.898-23.093-23.273-40.284-23.273c-8.476,0-16.421,2.288-23.273,6.262
	c-7.045,4.087-12.924,9.964-17.011,17.011c-0.147,0.254-0.296,0.507-0.441,0.763c-3.703,6.676-5.821,14.348-5.821,22.509
	s2.118,15.833,5.821,22.509c0.144,0.256,0.293,0.51,0.441,0.763c4.087,7.047,9.965,12.924,17.011,17.011
	c6.851,3.975,14.797,6.262,23.273,6.262c17.191,0,32.223-9.374,40.284-23.273c3.975-6.853,6.262-14.798,6.262-23.273
	S245.954,185.277,241.981,178.424z"/>
<path style="fill:#FF3F62;" d="M155.152,387.879c17.191,0,32.223-9.374,40.284-23.273c3.975-6.853,6.262-14.798,6.262-23.273
	c0-8.474-2.288-16.42-6.262-23.273c-8.06-13.898-23.093-23.273-40.284-23.273s-32.223,9.374-40.284,23.273
	c-3.973,6.853-6.262,14.798-6.262,23.273c0,8.474,2.288,16.42,6.262,23.273C122.928,378.505,137.961,387.879,155.152,387.879z"/>
<path style="fill:#830018;" d="M155.152,248.242c8.476,0,16.421-2.288,23.273-6.262c-7.045-4.087-12.924-9.964-17.011-17.011
	c-0.147-0.254-0.296-0.507-0.441-0.763c-3.703-6.676-5.821-14.348-5.821-22.509s2.118-15.833,5.821-22.509
	c0.144-0.258,0.293-0.51,0.441-0.763c4.087-7.047,9.965-12.924,17.011-17.011c-6.851-3.973-14.797-6.262-23.273-6.262
	c-17.191,0-32.223,9.374-40.284,23.273c-3.973,6.853-6.262,14.798-6.262,23.273c0,8.474,2.288,16.42,6.262,23.273
	C122.928,238.868,137.961,248.242,155.152,248.242z"/>
<g>
</g>
<g>
</g>
<g>
</g>
<g>
</g>
<g>
</g>
<g>
</g>
<g>
</g>
<g>
</g>
<g>
</g>
<g>
</g>
<g>
</g>
<g>
</g>
<g>
</g>
<g>
</g>
<g>
</g>
</svg>
