<svg width="512" height="512" xmlns="http://www.w3.org/2000/svg" xmlns:svg="http://www.w3.org/2000/svg">
 <g>
  <title>Layer 1</title>
  <g id="svg_1">
   <rect id="svg_47" height="372.999987" width="51" y="84.999991" x="158.166667" stroke-linecap="null" stroke-linejoin="null" stroke-dasharray="null" stroke-width="null" fill="#ee8700"/>
   <path id="svg_2" fill="#D5851F" d="m76.243667,364.606l-0.001,-46.546l0,-93.09l0,-139.618l356.848,-0.019l0,94.091l0,45.546l0,93.091l0,46.546l0,93.091l46.545,0l0,-116.365l0,-139.636l0,-139.636l0,-31.031c0,-12.853 -10.42,-23.273 -23.273,-23.273s-23.273,10.42 -23.273,23.273l0,7.758l-356.847,0.018l0,-7.776c0,-12.853 -10.42,-23.273 -23.273,-23.273s-23.273,10.421 -23.273,23.273l0,31.049l0,0.002l0,0.002l0,279.229l0,0.022c0,0.006 0,0.014 0,0.02l0.002,116.343l46.545,0l0,-93.091z"/>
   <rect transform="rotate(99.22988891601562 197.16667175292966,110.49999999999997) " id="svg_46" height="1" width="0" y="110" x="197.166667" stroke-linecap="null" stroke-linejoin="null" stroke-dasharray="null" stroke-width="null" fill="#D5851F"/>
   <rect id="svg_49" height="372.999987" width="51" y="84.999999" x="297.666667" stroke-linecap="null" stroke-linejoin="null" stroke-dasharray="null" stroke-width="null" fill="#ffb655"/>
  </g>
  <path id="svg_15" fill="#A78966" d="m488.727,459.030333l-7.758,0l-46.545,0l-178.424,0l-178.423,0l-46.545,0l-7.759,0c-12.853,0 -23.273,10.42 -23.273,23.273c0,12.853 10.42,23.273 23.273,23.273l31.032,0l201.695,0l201.697,0l31.03,0c12.853,0 23.273,-10.42 23.273,-23.273c0,-12.853 -10.42,-23.273 -23.273,-23.273z"/>
  <path id="svg_5" fill="#AF2E08" d="m488.727,457.697l-7.758,0l-46.545,0l-356.847,0l-46.545,0l-7.759,0c-12.853,0 -23.273,10.42 -23.273,23.273c0,12.853 10.42,23.273 23.273,23.273l31.032,0l403.392,0l31.03,0c12.853,0 23.273,-10.42 23.273,-23.273c0,-12.853 -10.42,-23.273 -23.273,-23.273z"/>
  <g id="svg_6">
   <path id="svg_7" fill="#69A15F" d="m225.981,208.424c-8.06,-13.898 -23.093,-23.273 -40.284,-23.273c-8.476,0 -16.421,2.288 -23.273,6.262c-7.045,4.087 -12.924,9.964 -17.011,17.011c-0.147,0.254 -0.296,0.507 -0.441,0.763c-3.703,6.676 -5.821,14.348 -5.821,22.509s2.118,15.833 5.821,22.509c0.144,0.256 0.293,0.51 0.441,0.763c4.087,7.047 9.965,12.924 17.011,17.011c6.851,3.975 14.797,6.262 23.273,6.262c17.191,0 32.223,-9.374 40.284,-23.273c3.973,-6.853 6.262,-14.798 6.262,-23.273s-2.289,-16.419 -6.262,-23.271z"/>
  </g>
  <g id="svg_9">
   <path id="svg_10" fill="#3D6DEB" d="m324.848,269.152c-17.191,0 -32.223,9.374 -40.284,23.273c-3.973,6.851 -6.262,14.798 -6.262,23.273c0,8.474 2.289,16.42 6.262,23.273c8.06,13.898 23.093,23.273 40.284,23.273s32.223,-9.374 40.284,-23.273c3.973,-6.853 6.262,-14.798 6.262,-23.273s-2.288,-16.421 -6.262,-23.273c-8.06,-13.899 -23.093,-23.273 -40.284,-23.273z"/>
  </g>
  <path id="svg_20" fill="#64C37D" d="m323.848,89.152c-17.191,0 -32.223,9.374 -40.284,23.273c-3.973,6.853 -6.262,14.798 -6.262,23.273c0,8.474 2.289,16.42 6.262,23.273c8.06,13.898 23.093,23.273 40.284,23.273s32.223,-9.374 40.284,-23.273c3.975,-6.853 6.262,-14.798 6.262,-23.273s-2.288,-16.42 -6.262,-23.273c-8.06,-13.899 -23.093,-23.273 -40.284,-23.273z"/>
  <path id="svg_22" fill="#A4E276" d="m324.848,363.788c-8.476,0 -16.421,2.288 -23.273,6.262c-7.045,4.087 -12.924,9.964 -17.011,17.011c-0.147,0.254 -0.296,0.507 -0.441,0.763c-3.703,6.676 -5.821,14.348 -5.821,22.509c0,8.161 2.118,15.833 5.821,22.509c0.144,0.256 0.293,0.51 0.441,0.763c4.087,7.047 9.965,12.924 17.011,17.011c6.852,3.975 14.797,6.262 23.273,6.262c17.191,0 32.223,-9.374 40.284,-23.273c3.975,-6.853 6.262,-14.798 6.262,-23.273c0,-8.474 -2.288,-16.42 -6.262,-23.273c-8.06,-13.897 -23.093,-23.271 -40.284,-23.271z"/>
  <path id="svg_27" fill="#806749" d="m77.577,457.697l-46.545,0l-7.759,0c-12.853,0 -23.273,10.42 -23.273,23.273c0,12.853 10.42,23.273 23.273,23.273l31.032,0l201.695,0l0,-46.545l-178.423,0l0,-0.001z"/>
  <g id="svg_16">
   <path id="svg_17" fill="#FFB655" d="m457.697,7.758c-12.853,0 -23.273,10.42 -23.273,23.273l0,7.758l-178.424,0.008l-178.424,0.009l0,-7.776c0,-12.853 -10.42,-23.273 -23.273,-23.273s-23.273,10.421 -23.273,23.273l0,31.049l0,0.003l0,0.002l0,279.229l0,0.02c0,0.006 0,0.014 0,0.02l0.002,116.343l46.545,0l0,-93.091l-0.001,-279.253l178.424,-0.009l178.424,-0.009l0,93.091l0,139.637l0,46.546l0,93.091l46.545,0l0,-116.366l0,-139.636l0,-139.636l0,-31.031c0.001,-12.852 -10.419,-23.272 -23.272,-23.272z"/>
  </g>
  <path id="svg_28" fill="#D8143A" d="m224.981,111.424c-8.06,-13.898 -23.093,-23.273 -40.284,-23.273c-8.476,0 -16.421,2.288 -23.273,6.262c-7.045,4.087 -12.924,9.964 -17.011,17.011c-0.147,0.254 -0.296,0.507 -0.441,0.763c-3.703,6.676 -5.821,14.348 -5.821,22.509s2.118,15.833 5.821,22.509c0.144,0.256 0.293,0.51 0.441,0.763c4.087,7.047 9.965,12.924 17.011,17.011c6.851,3.975 14.797,6.262 23.273,6.262c17.191,0 32.223,-9.374 40.284,-23.273c3.975,-6.853 6.262,-14.798 6.262,-23.273s-2.289,-16.418 -6.262,-23.271z"/>
  <g id="svg_23">
   <path id="svg_24" fill="#EE8700" d="m77.576,31.03c0,-12.853 -10.42,-23.273 -23.273,-23.273s-23.273,10.421 -23.273,23.273l0,31.049l0,0.003l0,0.002l0,279.229l0,0.02c0,0.006 0,0.014 0,0.02l0.002,116.343l46.545,0l0,-93.091l-0.001,-46.546l0,-93.089l0,-46.546l0,-93.072l178.424,-0.009l0,-46.546l-178.424,0.009l0,-7.776z"/>
  </g>
  <path id="svg_29" fill="#FF3F62" d="m184.152,456.879c17.191,0 32.223,-9.374 40.284,-23.273c3.975,-6.853 6.262,-14.798 6.262,-23.273c0,-8.474 -2.288,-16.42 -6.262,-23.273c-8.06,-13.898 -23.093,-23.273 -40.284,-23.273s-32.223,9.374 -40.284,23.273c-3.973,6.853 -6.262,14.798 -6.262,23.273c0,8.474 2.288,16.42 6.262,23.273c8.06,13.899 23.093,23.273 40.284,23.273z"/>
  <g id="svg_31"/>
  <g id="svg_32"/>
  <g id="svg_33"/>
  <g id="svg_34"/>
  <g id="svg_35"/>
  <g id="svg_36"/>
  <g id="svg_37"/>
  <g id="svg_38"/>
  <g id="svg_39"/>
  <g id="svg_40"/>
  <g id="svg_41"/>
  <g id="svg_42"/>
  <g id="svg_43"/>
  <g id="svg_44"/>
  <g id="svg_45"/>
 </g>
</svg>